# xmcd
#
# Track frame offsets:
#	225
#	26395
#	46922
#	81634
#	110563
#	143625
#	182233
#	205425
#	233908
#	268803
#
# Disc length: 4090 seconds
#
# Revision: 1
# Processed by: cddbd v1.5.2PL0 Copyright (c) Steve Scherf et al.
# Submitted via: audiograbber 1.83.01
#
DISCID=910ff70a
DTITLE=Jochen Volpert - Session 50.1
DYEAR=2013
DGENRE=Blues
TTITLE0=Brush with the Blues
TTITLE1=The Wind cries Mary
TTITLE2=Inner City Blues
TTITLE3=Vodoo Chile
TTITLE4=Stratus
TTITLE5=Stormy Monday
TTITLE6=Use Me
TTITLE7=I'd rather go blind
TTITLE8=Vodoo Chile (Alternativ)
TTITLE9=Stormy Monday (Alternativ)
EXTD=
EXTT0=
EXTT1=
EXTT2=
EXTT3=
EXTT4=
EXTT5=
EXTT6=
EXTT7=
EXTT8=
EXTT9=
PLAYORDER=
